<svg width="163" height="53" viewBox="0 0 163 53" fill="none" xmlns="http://www.w3.org/2000/svg">
<rect x="0.20636" y="3.04594" width="46" height="46" rx="8" fill="#9E65F3"/>
<path d="M23.2044 43.2989L8.04481 34.9545L23.2276 26.8264L38.1607 33.95L23.2044 43.2989Z" fill="#9E65F3" stroke="#1E1E1E" stroke-width="0.8"/>
<path d="M21.9596 17.4206L7.60636 25.3471V17.1486L22.2131 9.57479L21.9596 17.4206Z" stroke="black" stroke-width="0.8"/>
<path d="M23.1219 34.9916L23.5052 34.9897L39.0655 26.3913L39.0735 25.6956L23.4079 16.5599L23.0043 16.5603L7.2893 25.7606L7.30149 26.4578L23.1219 34.9916Z" fill="#C1F101" stroke="black" stroke-width="0.8" stroke-linejoin="bevel"/>
<path d="M23.5413 25.2098L8.06056 16.9096L23.5722 8.78321L38.381 16.9088L23.5413 25.2098Z" fill="#9E65F3" stroke="#1E1E1E" stroke-width="0.8"/>
<path d="M38.7636 34.8641L23.6064 43.0783V34.9363L38.7636 26.6635V34.8641Z" fill="#9E65F3" stroke="black" stroke-width="0.8"/>
<path d="M71.57 20.8528L68.4905 21.3982C68.3617 21.0043 68.1571 20.6293 67.8768 20.2732C67.6041 19.9172 67.2329 19.6255 66.7632 19.3982C66.2935 19.1709 65.7064 19.0573 65.0018 19.0573C64.0397 19.0573 63.2367 19.2732 62.5927 19.705C61.9488 20.1293 61.6268 20.6785 61.6268 21.3528C61.6268 21.9361 61.8427 22.4058 62.2745 22.7619C62.7064 23.1179 63.4033 23.4096 64.3655 23.6369L67.1382 24.2732C68.7442 24.6444 69.9412 25.2164 70.7291 25.9891C71.517 26.7619 71.9109 27.7656 71.9109 29.0005C71.9109 30.0459 71.6079 30.9778 71.0018 31.7959C70.4033 32.6066 69.5662 33.2429 68.4905 33.705C67.4223 34.1672 66.1836 34.3982 64.7745 34.3982C62.82 34.3982 61.2253 33.9816 59.9905 33.1482C58.7556 32.3073 57.998 31.1141 57.7177 29.5687L61.0018 29.0687C61.2064 29.9247 61.6268 30.5725 62.2632 31.0119C62.8995 31.4437 63.7291 31.6596 64.7518 31.6596C65.8655 31.6596 66.7556 31.4285 67.4223 30.9664C68.0889 30.4967 68.4223 29.9247 68.4223 29.2505C68.4223 28.705 68.2177 28.2467 67.8086 27.8755C67.4071 27.5043 66.7897 27.224 65.9564 27.0346L63.0018 26.3869C61.373 26.0156 60.1685 25.4247 59.3882 24.6141C58.6155 23.8035 58.2291 22.777 58.2291 21.5346C58.2291 20.5043 58.517 19.6028 59.0927 18.83C59.6685 18.0573 60.4639 17.455 61.4791 17.0232C62.4942 16.5838 63.6571 16.3641 64.9677 16.3641C66.8541 16.3641 68.3389 16.7732 69.4223 17.5914C70.5056 18.402 71.2215 19.4891 71.57 20.8528ZM82.359 34.3982C80.6696 34.3982 79.215 34.0156 77.9953 33.2505C76.7832 32.4778 75.8514 31.4134 75.1999 30.0573C74.5484 28.7012 74.2226 27.1482 74.2226 25.3982C74.2226 23.6255 74.5559 22.0611 75.2226 20.705C75.8893 19.3414 76.8287 18.277 78.0408 17.5119C79.2529 16.7467 80.6809 16.3641 82.3249 16.3641C83.6506 16.3641 84.8325 16.6103 85.8703 17.1028C86.9082 17.5876 87.7453 18.2694 88.3817 19.1482C89.0256 20.027 89.4082 21.0535 89.5294 22.2278H86.2226C86.0408 21.4096 85.6241 20.705 84.9726 20.1141C84.3287 19.5232 83.465 19.2278 82.3817 19.2278C81.4347 19.2278 80.6052 19.4778 79.8931 19.9778C79.1885 20.4702 78.6393 21.1747 78.2453 22.0914C77.8514 23.0005 77.6544 24.0762 77.6544 25.3187C77.6544 26.5914 77.8476 27.6899 78.234 28.6141C78.6203 29.5384 79.1658 30.2543 79.8703 30.7619C80.5825 31.2694 81.4196 31.5232 82.3817 31.5232C83.0256 31.5232 83.609 31.4058 84.1317 31.1709C84.662 30.9285 85.1052 30.5838 85.4612 30.1369C85.8249 29.6899 86.0787 29.152 86.2226 28.5232H89.5294C89.4082 29.652 89.0408 30.6596 88.4272 31.5459C87.8135 32.4323 86.9916 33.1293 85.9612 33.6369C84.9385 34.1444 83.7378 34.3982 82.359 34.3982ZM99.8752 34.3982C98.2389 34.3982 96.8108 34.0232 95.5911 33.2732C94.3714 32.5232 93.4245 31.474 92.7502 30.1255C92.076 28.777 91.7389 27.2012 91.7389 25.3982C91.7389 23.5876 92.076 22.0043 92.7502 20.6482C93.4245 19.2922 94.3714 18.2391 95.5911 17.4891C96.8108 16.7391 98.2389 16.3641 99.8752 16.3641C101.512 16.3641 102.94 16.7391 104.159 17.4891C105.379 18.2391 106.326 19.2922 107 20.6482C107.674 22.0043 108.012 23.5876 108.012 25.3982C108.012 27.2012 107.674 28.777 107 30.1255C106.326 31.474 105.379 32.5232 104.159 33.2732C102.94 34.0232 101.512 34.3982 99.8752 34.3982ZM99.8866 31.5459C100.947 31.5459 101.826 31.2656 102.523 30.705C103.22 30.1444 103.735 29.3982 104.068 28.4664C104.409 27.5346 104.58 26.5081 104.58 25.3869C104.58 24.2732 104.409 23.2505 104.068 22.3187C103.735 21.3793 103.22 20.6255 102.523 20.0573C101.826 19.4891 100.947 19.205 99.8866 19.205C98.8184 19.205 97.932 19.4891 97.2275 20.0573C96.5305 20.6255 96.0116 21.3793 95.6707 22.3187C95.3373 23.2505 95.1707 24.2732 95.1707 25.3869C95.1707 26.5081 95.3373 27.5346 95.6707 28.4664C96.0116 29.3982 96.5305 30.1444 97.2275 30.705C97.932 31.2656 98.8184 31.5459 99.8866 31.5459ZM111.164 34.0459V16.5914H114.448V19.3641H114.63C114.948 18.4247 115.509 17.6861 116.312 17.1482C117.123 16.6028 118.039 16.33 119.062 16.33C119.274 16.33 119.524 16.3376 119.812 16.3528C120.107 16.3679 120.338 16.3869 120.505 16.4096V19.6596C120.369 19.6217 120.126 19.58 119.778 19.5346C119.429 19.4815 119.081 19.455 118.732 19.455C117.929 19.455 117.213 19.6255 116.585 19.9664C115.963 20.2997 115.471 20.7656 115.107 21.3641C114.744 21.955 114.562 22.6293 114.562 23.3869V34.0459H111.164ZM122.805 40.5914V16.5914H126.124V19.4209H126.408C126.605 19.0573 126.889 18.6369 127.26 18.1596C127.631 17.6823 128.146 17.2656 128.805 16.9096C129.465 16.5459 130.336 16.3641 131.419 16.3641C132.828 16.3641 134.086 16.7202 135.192 17.4323C136.298 18.1444 137.165 19.1709 137.794 20.5119C138.43 21.8528 138.749 23.4664 138.749 25.3528C138.749 27.2391 138.434 28.8566 137.805 30.205C137.177 31.5459 136.313 32.58 135.215 33.3073C134.116 34.027 132.862 34.3869 131.453 34.3869C130.393 34.3869 129.525 34.2088 128.851 33.8528C128.184 33.4967 127.662 33.08 127.283 32.6028C126.904 32.1255 126.612 31.7012 126.408 31.33H126.203V40.5914H122.805ZM126.135 25.3187C126.135 26.5459 126.313 27.6217 126.669 28.5459C127.025 29.4702 127.54 30.1937 128.215 30.7164C128.889 31.2316 129.715 31.4891 130.692 31.4891C131.707 31.4891 132.555 31.2202 133.237 30.6823C133.919 30.1369 134.434 29.3982 134.783 28.4664C135.139 27.5346 135.317 26.4853 135.317 25.3187C135.317 24.1672 135.143 23.1331 134.794 22.2164C134.453 21.2997 133.938 20.5762 133.249 20.0459C132.567 19.5156 131.715 19.2505 130.692 19.2505C129.707 19.2505 128.874 19.5043 128.192 20.0119C127.518 20.5194 127.006 21.2278 126.658 22.1369C126.309 23.0459 126.135 24.1065 126.135 25.3187Z" fill="black"/>
</svg>
