<svg width="47" height="47" viewBox="0 0 47 47" fill="none" xmlns="http://www.w3.org/2000/svg">
<rect x="0.20636" y="0.0459442" width="46" height="46" rx="8" fill="#9E65F3"/>
<path d="M23.2044 40.2989L8.04481 31.9545L23.2276 23.8264L38.1607 30.95L23.2044 40.2989Z" fill="#9E65F3" stroke="#1E1E1E" stroke-width="0.8"/>
<path d="M21.9596 14.4206L7.60636 22.3471V14.1486L22.2131 6.57479L21.9596 14.4206Z" stroke="black" stroke-width="0.8"/>
<path d="M23.1219 31.9916L23.5052 31.9897L39.0655 23.3913L39.0735 22.6956L23.4079 13.5599L23.0043 13.5603L7.2893 22.7606L7.30149 23.4578L23.1219 31.9916Z" fill="#C1F101" stroke="black" stroke-width="0.8" stroke-linejoin="bevel"/>
<path d="M23.5413 22.2098L8.06056 13.9096L23.5722 5.78321L38.381 13.9088L23.5413 22.2098Z" fill="#9E65F3" stroke="#1E1E1E" stroke-width="0.8"/>
<path d="M38.7636 31.8641L23.6064 40.0783V31.9363L38.7636 23.6635V31.8641Z" fill="#9E65F3" stroke="black" stroke-width="0.8"/>
</svg>
