<svg width="26" height="26" viewBox="0 0 26 26" fill="none" xmlns="http://www.w3.org/2000/svg">
<path d="M12.9999 11.9334V18.3334M9.79992 15.1334H16.1999M23.6666 20.4667C23.6666 21.0325 23.4418 21.5751 23.0417 21.9752C22.6417 22.3753 22.099 22.6 21.5333 22.6H4.46659C3.90079 22.6 3.35817 22.3753 2.95809 21.9752C2.55801 21.5751 2.33325 21.0325 2.33325 20.4667V5.53336C2.33325 4.96756 2.55801 4.42494 2.95809 4.02486C3.35817 3.62479 3.90079 3.40002 4.46659 3.40002H9.79992L11.9333 6.60002H21.5333C22.099 6.60002 22.6417 6.82479 23.0417 7.22486C23.4418 7.62494 23.6666 8.16756 23.6666 8.73336V20.4667Z" stroke="#757575" stroke-width="2.4" stroke-linecap="round" stroke-linejoin="round"/>
</svg>
