<svg width="44" height="44" viewBox="0 0 44 44" fill="none" xmlns="http://www.w3.org/2000/svg">
<path d="M28.5137 0.177979C31.5085 0.177979 34.1214 0.814372 36.3525 2.08716C38.5837 3.34497 40.3132 5.16431 41.541 7.54517C42.7689 9.92603 43.3828 12.7861 43.3828 16.1252V21.4934C43.3828 22.2421 43.1432 22.8486 42.6641 23.3127C42.1849 23.7769 41.6084 24.009 40.9346 24.009C40.2458 24.009 39.6618 23.7769 39.1826 23.3127C38.7034 22.8486 38.4639 22.2421 38.4639 21.4934V16.2825C38.4639 13.8717 38.0221 11.8352 37.1387 10.1731C36.2702 8.49601 35.0723 7.23071 33.5449 6.3772C32.0176 5.50871 30.2806 5.07446 28.334 5.07446C26.3874 5.07446 24.6654 5.50871 23.168 6.3772C21.6706 7.23071 20.4951 8.49601 19.6416 10.1731C18.8031 11.8352 18.3838 13.8717 18.3838 16.2825V30.6575L18.0469 38.2268L16.7441 37.5081L21.4834 31.9153L27.0986 26.1428C27.3232 25.9182 27.5703 25.746 27.8398 25.6262C28.1243 25.4915 28.4463 25.4241 28.8057 25.4241C29.5094 25.4241 30.0859 25.6487 30.5352 26.0979C30.9844 26.5321 31.209 27.1161 31.209 27.8499C31.209 28.5237 30.9469 29.1152 30.4229 29.6243L17.7324 42.5393C17.4928 42.7939 17.2158 42.981 16.9014 43.1008C16.5869 43.2356 16.2575 43.303 15.9131 43.303C15.5837 43.303 15.2542 43.2356 14.9248 43.1008C14.6104 42.981 14.3333 42.7939 14.0938 42.5393L1.38086 29.6243C0.871745 29.1152 0.617188 28.5237 0.617188 27.8499C0.617188 27.1161 0.841797 26.5321 1.29102 26.0979C1.74023 25.6487 2.31673 25.4241 3.02051 25.4241C3.37988 25.4241 3.69434 25.4915 3.96387 25.6262C4.24837 25.746 4.50293 25.9182 4.72754 26.1428L10.3652 31.9153L15.082 37.5081L13.7793 38.2268L13.4424 30.6575V16.4172C13.4424 13.0181 14.0788 10.1132 15.3516 7.70239C16.6243 5.27661 18.3913 3.41984 20.6523 2.13208C22.9284 0.829346 25.5488 0.177979 28.5137 0.177979Z" fill="#C1F101"/>
</svg>
